<svg width="50" height="50" viewBox="0 0 50 50" fill="none" xmlns="http://www.w3.org/2000/svg">
<g clip-path="url(#clip0_356_117)">
<path d="M25 50C38.8071 50 50 38.8071 50 25C50 11.1929 38.8071 0 25 0C11.1929 0 0 11.1929 0 25C0 38.8071 11.1929 50 25 50Z" fill="white"/>
<path fill-rule="evenodd" clip-rule="evenodd" d="M25.0006 12.3252C28.4425 12.3252 28.875 12.3391 30.2262 12.4019C31.2777 12.4221 32.3182 12.621 33.3029 12.9903C34.1445 13.3166 34.9089 13.8148 35.5472 14.453C36.1854 15.0913 36.6836 15.8557 37.0099 16.6973C37.3784 17.6799 37.5774 18.7179 37.5983 19.7671C37.6611 21.1182 37.675 21.5508 37.675 24.9926C37.675 28.4345 37.6611 28.8671 37.5983 30.2182C37.5781 31.2698 37.3792 32.3102 37.0099 33.295C36.6836 34.1366 36.1854 34.9009 35.5472 35.5392C34.9089 36.1775 34.1445 36.6757 33.3029 37.0019C32.3208 37.3728 31.2827 37.5741 30.2331 37.5973C28.882 37.6601 28.4494 37.674 25.0076 37.674C21.5657 37.674 21.1331 37.6601 19.782 37.5973C18.7304 37.5772 17.69 37.3782 16.7052 37.0089C15.8636 36.6826 15.0993 36.1845 14.461 35.5462C13.8227 34.9079 13.3245 34.1436 12.9983 33.3019C12.6274 32.3198 12.4261 31.2818 12.4029 30.2322C12.3401 28.881 12.3262 28.4485 12.3262 25.0066C12.3262 21.5647 12.3401 21.1322 12.4029 19.781C12.423 18.7295 12.622 17.689 12.9913 16.7043C13.3168 15.8614 13.8146 15.0956 14.4529 14.4561C15.0912 13.8166 15.856 13.3174 16.6983 12.9903C17.6808 12.6218 18.7188 12.4228 19.768 12.4019C21.1262 12.3391 21.5587 12.3252 25.0006 12.3252Z" fill="black"/>
<path fill-rule="evenodd" clip-rule="evenodd" d="M25.0006 12.3252C28.4425 12.3252 28.875 12.3391 30.2262 12.4019C31.2777 12.4221 32.3182 12.621 33.3029 12.9903C34.1445 13.3166 34.9089 13.8148 35.5472 14.453C36.1854 15.0913 36.6836 15.8557 37.0099 16.6973C37.3784 17.6799 37.5774 18.7179 37.5983 19.7671C37.6611 21.1182 37.675 21.5508 37.675 24.9926C37.675 28.4345 37.6611 28.8671 37.5983 30.2182C37.5781 31.2698 37.3792 32.3102 37.0099 33.295C36.6836 34.1366 36.1854 34.9009 35.5472 35.5392C34.9089 36.1775 34.1445 36.6757 33.3029 37.0019C32.3208 37.3728 31.2827 37.5741 30.2331 37.5973C28.882 37.6601 28.4494 37.674 25.0076 37.674C21.5657 37.674 21.1331 37.6601 19.782 37.5973C18.7304 37.5772 17.69 37.3782 16.7052 37.0089C15.8636 36.6826 15.0993 36.1845 14.461 35.5462C13.8227 34.9079 13.3245 34.1436 12.9983 33.3019C12.6274 32.3198 12.4261 31.2818 12.4029 30.2322C12.3401 28.881 12.3262 28.4485 12.3262 25.0066C12.3262 21.5647 12.3401 21.1322 12.4029 19.781C12.423 18.7295 12.622 17.689 12.9913 16.7043C13.3168 15.8614 13.8146 15.0956 14.4529 14.4561C15.0912 13.8166 15.856 13.3174 16.6983 12.9903C17.6808 12.6218 18.7188 12.4228 19.768 12.4019C21.1262 12.3391 21.5587 12.3252 25.0006 12.3252Z" fill="black"/>
<path fill-rule="evenodd" clip-rule="evenodd" d="M25.0006 12.3252C28.4425 12.3252 28.875 12.3391 30.2262 12.4019C31.2777 12.4221 32.3182 12.621 33.3029 12.9903C34.1445 13.3166 34.9089 13.8148 35.5472 14.453C36.1854 15.0913 36.6836 15.8557 37.0099 16.6973C37.3784 17.6799 37.5774 18.7179 37.5983 19.7671C37.6611 21.1182 37.675 21.5508 37.675 24.9926C37.675 28.4345 37.6611 28.8671 37.5983 30.2182C37.5781 31.2698 37.3792 32.3102 37.0099 33.295C36.6836 34.1366 36.1854 34.9009 35.5472 35.5392C34.9089 36.1775 34.1445 36.6757 33.3029 37.0019C32.3208 37.3728 31.2827 37.5741 30.2331 37.5973C28.882 37.6601 28.4494 37.674 25.0076 37.674C21.5657 37.674 21.1331 37.6601 19.782 37.5973C18.7304 37.5772 17.69 37.3782 16.7052 37.0089C15.8636 36.6826 15.0993 36.1845 14.461 35.5462C13.8227 34.9079 13.3245 34.1436 12.9983 33.3019C12.6274 32.3198 12.4261 31.2818 12.4029 30.2322C12.3401 28.881 12.3262 28.4485 12.3262 25.0066C12.3262 21.5647 12.3401 21.1322 12.4029 19.781C12.423 18.7295 12.622 17.689 12.9913 16.7043C13.3168 15.8614 13.8146 15.0956 14.4529 14.4561C15.0912 13.8166 15.856 13.3174 16.6983 12.9903C17.6808 12.6218 18.7188 12.4228 19.768 12.4019C21.1262 12.3391 21.5587 12.3252 25.0006 12.3252ZM30.1169 14.6833C28.782 14.6229 28.3797 14.6089 25.0006 14.6089C21.6215 14.6089 21.2145 14.6229 19.8843 14.6833C19.0793 14.6916 18.2817 14.8379 17.5262 15.1159C16.9786 15.327 16.4813 15.6504 16.0664 16.0654C15.6514 16.4804 15.328 16.9776 15.1169 17.5252C14.8386 18.2791 14.6915 19.0751 14.682 19.8787C14.6215 21.2136 14.6076 21.6159 14.6076 24.995C14.6076 28.374 14.6215 28.781 14.682 30.1112C14.6904 30.9179 14.8375 31.7172 15.1169 32.474C15.328 33.0216 15.6514 33.5189 16.0664 33.9338C16.4813 34.3488 16.9786 34.6722 17.5262 34.8833C18.2801 35.1616 19.0761 35.3087 19.8797 35.3182C21.2145 35.3787 21.6169 35.3926 24.9959 35.3926C28.375 35.3926 28.782 35.3787 30.1122 35.3182C30.9189 35.3098 31.7182 35.1627 32.475 34.8833C33.0226 34.6722 33.5198 34.3488 33.9348 33.9338C34.3498 33.5189 34.6732 33.0216 34.8843 32.474C35.1626 31.7201 35.3097 30.9241 35.3192 30.1205C35.3797 28.7857 35.3936 28.3833 35.3936 25.0043C35.3936 21.6252 35.3797 21.2182 35.3192 19.888C35.3107 19.0813 35.1636 18.282 34.8843 17.5252C34.6732 16.9776 34.3498 16.4804 33.9348 16.0654C33.5198 15.6504 33.0226 15.327 32.475 15.1159C31.721 14.8384 30.925 14.6921 30.1215 14.6833H30.1169ZM25.0006 29.2252C25.8363 29.2252 26.6533 28.9774 27.3482 28.5131C28.0431 28.0487 28.5847 27.3888 28.9045 26.6167C29.2243 25.8446 29.308 24.9949 29.145 24.1752C28.9819 23.3556 28.5795 22.6026 27.9885 22.0117C27.3976 21.4207 26.6446 21.0183 25.825 20.8552C25.0053 20.6922 24.1557 20.7759 23.3835 21.0957C22.6114 21.4155 21.9515 21.9571 21.4872 22.652C21.0228 23.3469 20.775 24.1639 20.775 24.9996C20.7756 26.1201 21.221 27.1946 22.0133 27.9869C22.8056 28.7792 23.8801 29.2246 25.0006 29.2252ZM25.0006 18.4903C26.2885 18.4903 27.5474 18.8722 28.6183 19.5877C29.6891 20.3032 30.5237 21.3202 31.0165 22.51C31.5094 23.6999 31.6383 25.0092 31.3871 26.2723C31.1358 27.5354 30.5157 28.6957 29.605 29.6064C28.6943 30.517 27.5341 31.1372 26.2709 31.3884C25.0078 31.6397 23.6985 31.5107 22.5087 31.0179C21.3189 30.5251 20.3019 29.6904 19.5864 28.6196C18.8709 27.5488 18.489 26.2898 18.489 25.0019C18.489 23.2749 19.175 21.6187 20.3962 20.3975C21.6173 19.1764 23.2736 18.4903 25.0006 18.4903ZM33.2866 18.2345C33.2866 18.5353 33.1974 18.8294 33.0303 19.0795C32.8632 19.3296 32.6257 19.5245 32.3477 19.6397C32.0698 19.7548 31.764 19.7849 31.469 19.7262C31.174 19.6675 30.903 19.5227 30.6902 19.31C30.4775 19.0973 30.3327 18.8262 30.274 18.5312C30.2153 18.2362 30.2454 17.9304 30.3605 17.6525C30.4757 17.3745 30.6706 17.137 30.9207 16.9699C31.1708 16.8028 31.4649 16.7136 31.7657 16.7136C32.1691 16.7136 32.5559 16.8738 32.8412 17.159C33.1264 17.4443 33.2866 17.8311 33.2866 18.2345Z" fill="white"/>
<path fill-rule="evenodd" clip-rule="evenodd" d="M25.0006 12.3252C28.4425 12.3252 28.875 12.3391 30.2262 12.4019C31.2777 12.4221 32.3182 12.621 33.3029 12.9903C34.1445 13.3166 34.9089 13.8148 35.5472 14.453C36.1854 15.0913 36.6836 15.8557 37.0099 16.6973C37.3784 17.6799 37.5774 18.7179 37.5983 19.7671C37.6611 21.1182 37.675 21.5508 37.675 24.9926C37.675 28.4345 37.6611 28.8671 37.5983 30.2182C37.5781 31.2698 37.3792 32.3102 37.0099 33.295C36.6836 34.1366 36.1854 34.9009 35.5472 35.5392C34.9089 36.1775 34.1445 36.6757 33.3029 37.0019C32.3208 37.3728 31.2827 37.5741 30.2331 37.5973C28.882 37.6601 28.4494 37.674 25.0076 37.674C21.5657 37.674 21.1331 37.6601 19.782 37.5973C18.7304 37.5772 17.69 37.3782 16.7052 37.0089C15.8636 36.6826 15.0993 36.1845 14.461 35.5462C13.8227 34.9079 13.3245 34.1436 12.9983 33.3019C12.6274 32.3198 12.4261 31.2818 12.4029 30.2322C12.3401 28.881 12.3262 28.4485 12.3262 25.0066C12.3262 21.5647 12.3401 21.1322 12.4029 19.781C12.423 18.7295 12.622 17.689 12.9913 16.7043C13.3168 15.8614 13.8146 15.0956 14.4529 14.4561C15.0912 13.8166 15.856 13.3174 16.6983 12.9903C17.6808 12.6218 18.7188 12.4228 19.768 12.4019C21.1262 12.3391 21.5587 12.3252 25.0006 12.3252ZM30.1169 14.6833C28.782 14.6229 28.3797 14.6089 25.0006 14.6089C21.6215 14.6089 21.2145 14.6229 19.8843 14.6833C19.0793 14.6916 18.2817 14.8379 17.5262 15.1159C16.9786 15.327 16.4813 15.6504 16.0664 16.0654C15.6514 16.4804 15.328 16.9776 15.1169 17.5252C14.8386 18.2791 14.6915 19.0751 14.682 19.8787C14.6215 21.2136 14.6076 21.6159 14.6076 24.995C14.6076 28.374 14.6215 28.781 14.682 30.1112C14.6904 30.9179 14.8375 31.7172 15.1169 32.474C15.328 33.0216 15.6514 33.5189 16.0664 33.9338C16.4813 34.3488 16.9786 34.6722 17.5262 34.8833C18.2801 35.1616 19.0761 35.3087 19.8797 35.3182C21.2145 35.3787 21.6169 35.3926 24.9959 35.3926C28.375 35.3926 28.782 35.3787 30.1122 35.3182C30.9189 35.3098 31.7182 35.1627 32.475 34.8833C33.0226 34.6722 33.5198 34.3488 33.9348 33.9338C34.3498 33.5189 34.6732 33.0216 34.8843 32.474C35.1626 31.7201 35.3097 30.9241 35.3192 30.1205C35.3797 28.7857 35.3936 28.3833 35.3936 25.0043C35.3936 21.6252 35.3797 21.2182 35.3192 19.888C35.3107 19.0813 35.1636 18.282 34.8843 17.5252C34.6732 16.9776 34.3498 16.4804 33.9348 16.0654C33.5198 15.6504 33.0226 15.327 32.475 15.1159C31.721 14.8384 30.925 14.6921 30.1215 14.6833H30.1169Z" fill="black"/>
</g>
<defs>
<clipPath id="clip0_356_117">
<rect width="50" height="50" fill="white"/>
</clipPath>
</defs>
</svg>
